# xmcd CD database file
#
# Track frame offsets:
#	183
#	12763
#	26423
#	40855
#	56418
#	70908
#	85113
#	101428
#	114360
#	127295
#	139778
#	152375
#	165798
#	179553
#	194323
#	209453
#	223783
#	237573
#	250953
#	265285
#	279555
#	293730
#
# Disc length: 4111 seconds
#
# Revision: 0
# Processed by: cddbd v1.4PL0 Copyright (c) Steve Scherf et al.
# Submitted via: CDex 1.50
#
DISCID=3b100d16
DTITLE=Benny Goodman - 1934-1935
DYEAR=1994
DGENRE=Jazz
TTITLE0=Georgia Jubilee
TTITLE1=Junk Man
TTITLE2=Ol' Pappy
TTITLE3=Emaline
TTITLE4=I Ain't Lazy - I'm Just Dreaming
TTITLE5=As Long as I Live
TTITLE6=Moon Glow
TTITLE7=Breakfast Ball
TTITLE8=Take My Word
TTITLE9=It Happens to the Best of Friends
TTITLE10=Nitwit Serenade
TTITLE11=Bugle Call Rag
TTITLE12=Learning
TTITLE13=Stars Fell on Alabama
TTITLE14=Solitude
TTITLE15=I'm Getting Sentimental Over You
TTITLE16=I'm a Hundred Per Cent for You
TTITLE17=Cokey
TTITLE18=Like a Bolt From the Blue
TTITLE19=Music Hall Rag
TTITLE20=Dixieland Band
TTITLE21=Blue Moon
EXTD=YEAR: 1994
EXTT0=
EXTT1=
EXTT2=
EXTT3=
EXTT4=
EXTT5=
EXTT6=
EXTT7=
EXTT8=
EXTT9=
EXTT10=
EXTT11=
EXTT12=
EXTT13=
EXTT14=
EXTT15=
EXTT16=
EXTT17=
EXTT18=
EXTT19=
EXTT20=
EXTT21=
PLAYORDER=
